<?xml version="1.0" ?><svg xmlns="http://www.w3.org/2000/svg" width="24" height="24" viewBox="0 0 24 24" fill="none"><path d="M13.9701 11.2425C14.1041 10.7067 13.7783 10.1638 13.2425 10.0299C12.7067 9.8959 12.1638 10.2217 12.0299 10.7575L10.5299 16.7575C10.3959 17.2933 10.7217 17.8362 11.2575 17.9701C11.7933 18.1041 12.3362 17.7783 12.4701 17.2425L13.9701 11.2425Z" fill="#0D4DDF"/><path d="M14.2191 11.3753C14.5641 10.944 15.1934 10.8741 15.6247 11.2191L18.1247 13.2191C18.3619 13.4089 18.5 13.6962 18.5 14C18.5 14.3038 18.3619 14.5911 18.1247 14.7809L15.6247 16.7809C15.1934 17.1259 14.5641 17.056 14.2191 16.6247C13.8741 16.1934 13.944 15.5641 14.3753 15.2191L15.8992 14L14.3753 12.7809C13.944 12.4359 13.8741 11.8066 14.2191 11.3753Z" fill="#0D4DDF"/><path d="M8.8753 11.2191C9.30656 10.8741 9.93585 10.944 10.2809 11.3753C10.6259 11.8066 10.556 12.4359 10.1247 12.7809L8.60077 14L10.1247 15.2191C10.556 15.5641 10.6259 16.1934 10.2809 16.6247C9.93585 17.056 9.30656 17.1259 8.8753 16.7809L6.3753 14.7809C6.13808 14.5911 5.99999 14.3038 5.99999 14C5.99999 13.6962 6.13808 13.4089 6.3753 13.2191L8.8753 11.2191Z" fill="#0D4DDF"/><path fill-rule="evenodd" clip-rule="evenodd" d="M3 6C3 4.34315 4.34315 3 6 3H18C19.6569 3 21 4.34315 21 6V18C21 19.6569 19.6569 21 18 21H6C4.34315 21 3 19.6569 3 18V6ZM6 5C5.44772 5 5 5.44772 5 6H19C19 5.44772 18.5523 5 18 5H6ZM5 18V8H19V18C19 18.5523 18.5523 19 18 19H6C5.44772 19 5 18.5523 5 18Z" fill="#0D4DDF"/></svg>